<?xml version="1.0" standalone="no"?>
<!DOCTYPE svg PUBLIC "-//W3C//DTD SVG 20010904//EN"
 "http://www.w3.org/TR/2001/REC-SVG-20010904/DTD/svg10.dtd">
<svg version="1.0" xmlns="http://www.w3.org/2000/svg"
 width="500.000000pt" height="500.000000pt" viewBox="0 0 500.000000 500.000000"
 preserveAspectRatio="xMidYMid meet">

<g transform="translate(0.000000,500.000000) scale(0.100000,-0.100000)"
fill="#000000" stroke="none">
<path d="M760 2500 l0 -480 1740 0 1740 0 0 480 0 480 -1740 0 -1740 0 0 -480z
m3450 0 l0 -450 -1715 0 -1715 0 0 450 0 450 1715 0 1715 0 0 -450z"/>
<path d="M850 2500 l0 -390 820 0 820 0 0 390 0 390 -820 0 -820 0 0 -390z
m816 130 c90 -44 100 -165 18 -229 -20 -15 -41 -21 -80 -21 -47 0 -59 4 -90
33 -70 64 -54 180 30 218 52 24 70 24 122 -1z m-577 -91 c18 -56 34 -99 36
-97 3 2 20 47 39 99 46 128 59 127 108 -6 41 -113 36 -115 80 30 18 58 27 75
42 75 10 0 16 -5 13 -12 -2 -7 -22 -66 -43 -130 -27 -84 -43 -118 -54 -118
-11 0 -28 33 -54 106 l-39 107 -40 -107 c-29 -78 -44 -106 -55 -104 -10 2 -30
49 -58 131 -38 113 -41 127 -25 127 14 0 25 -22 50 -101z m900 84 c12 -10 24
-35 28 -55 5 -32 1 -41 -26 -68 l-31 -31 24 -32 c37 -51 39 -57 19 -57 -11 0
-33 19 -51 45 -26 36 -37 45 -62 45 -29 0 -30 -2 -30 -45 0 -33 -4 -45 -15
-45 -13 0 -15 21 -15 130 l0 130 69 0 c51 0 74 -5 90 -17z m151 -38 c0 -55 0
-55 31 -55 45 0 64 14 79 60 13 38 33 60 46 48 7 -7 -25 -90 -42 -109 -14 -16
-13 -23 20 -79 20 -34 36 -63 36 -66 0 -2 -8 -4 -17 -4 -11 0 -30 22 -51 60
-30 55 -35 60 -67 60 l-35 0 0 -60 c0 -47 -3 -60 -15 -60 -13 0 -15 21 -15
130 0 109 2 130 15 130 12 0 15 -13 15 -55z"/>
<path d="M1543 2595 c-54 -38 -50 -141 7 -170 59 -30 119 -12 146 43 13 29 14
41 5 73 -6 21 -21 45 -34 54 -28 19 -96 19 -124 0z"/>
<path d="M1860 2560 l0 -50 48 0 c55 0 72 12 72 52 0 33 -24 48 -79 48 l-41 0
0 -50z"/>
<path d="M2780 2632 c-30 -14 -35 -23 -38 -55 -4 -49 15 -71 79 -92 48 -16 63
-37 34 -49 -18 -6 -45 2 -45 15 0 5 -18 9 -39 9 -34 0 -38 -3 -34 -19 9 -37
48 -63 95 -63 23 -1 54 2 66 6 42 14 61 98 28 125 -6 5 -34 18 -61 28 -29 11
-50 25 -50 33 0 21 44 25 51 6 7 -18 74 -23 74 -5 0 24 -24 52 -55 65 -45 18
-63 18 -105 -4z"/>
<path d="M3584 2631 c-86 -39 -99 -158 -26 -224 50 -45 153 -37 197 15 14 16
25 36 25 44 0 19 -67 19 -86 -1 -20 -20 -68 -19 -88 1 -19 19 -21 64 -3 87 21
28 62 32 86 8 24 -24 91 -30 91 -7 0 23 -42 68 -76 82 -44 18 -71 17 -120 -5z"/>
<path d="M2990 2510 l0 -130 35 0 c32 0 35 2 35 29 0 28 3 30 47 37 64 9 93
40 93 96 -1 74 -35 98 -139 98 l-71 0 0 -130z m131 54 c18 -21 0 -48 -35 -52
-24 -3 -26 0 -26 32 0 31 3 36 24 36 13 0 29 -7 37 -16z"/>
<path d="M3316 2632 c-6 -10 -96 -242 -96 -248 0 -2 18 -4 39 -4 31 0 41 4 46
20 5 16 15 20 52 20 36 0 46 -4 50 -20 4 -16 14 -20 44 -20 22 0 39 3 39 7 0
4 -21 62 -47 130 l-48 123 -37 0 c-20 0 -39 -4 -42 -8z m64 -149 c0 -7 -12
-13 -26 -13 -20 0 -25 4 -20 16 3 9 9 28 13 42 l6 27 13 -30 c7 -16 13 -36 14
-42z"/>
<path d="M3830 2510 l0 -130 90 0 90 0 0 30 c0 30 -1 30 -55 30 -48 0 -55 2
-55 20 0 17 7 20 45 20 43 0 45 1 45 30 0 29 -2 30 -45 30 -38 0 -45 3 -45 20
0 17 7 20 50 20 49 0 50 1 50 30 l0 30 -85 0 -85 0 0 -130z"/>
</g>
</svg>
